<?xml version="1.0" encoding="UTF-8" standalone="no"?>
<svg
   xmlns:dc="http://purl.org/dc/elements/1.1/"
   xmlns:cc="http://creativecommons.org/ns#"
   xmlns:rdf="http://www.w3.org/1999/02/22-rdf-syntax-ns#"
   xmlns:svg="http://www.w3.org/2000/svg"
   xmlns="http://www.w3.org/2000/svg"
   viewBox="0 0 600 600"
   height="600"
   width="600"
   id="svg2"
   version="1.1">
  <metadata
     id="metadata8">
    <rdf:RDF>
      <cc:Work
         rdf:about="">
        <dc:format>image/svg+xml</dc:format>
        <dc:type
           rdf:resource="http://purl.org/dc/dcmitype/StillImage" />
        <dc:title></dc:title>
      </cc:Work>
    </rdf:RDF>
  </metadata>
  <defs
     id="defs6" />
  <g
     transform="translate(-40.958199,398.66543)"
     style="display:inline"
     id="layer2" />
  <g
     transform="translate(-40.958199,398.66543)"
     style="display:inline"
     id="layer3">
    <g
       transform="matrix(1.6422207,1.9444739,-1.9444739,1.6422207,238.64342,-557.00405)"
       id="g4594">
      <path
         style="display:inline;fill:#ff79c6;fill-opacity:1;stroke:none;stroke-width:3.79999995;stroke-linecap:butt;stroke-linejoin:miter;stroke-miterlimit:4;stroke-dasharray:none;stroke-opacity:1"
         d="M 3.4619883,94.918128 C 13.126706,79.988304 23.548212,68.837622 35.052632,56.619883 47.06091,43.867045 80.491228,30.222222 80.491228,30.222222 86.35343,25.198442 84.162632,8.1707937 85.452459,6.930301 c 1.133017,-0.6573672 4.076471,12.677379 5.857483,11.607711 1.115897,-0.670203 6.47684,-15.6032395 8.65497,-15.5789478 1.235618,0.01378 -0.105771,10.9929178 3.461988,10.8187138 1.0009,-0.04887 3.82853,-6.958201 5.24098,-6.4409791 0.94583,0.3463509 2.58925,7.3502351 4.43023,7.1249741 1.50598,-0.184271 5.86916,-6.5349632 6.95249,-6.1589785 1.12101,0.3890616 -0.48783,7.0032025 2.82148,7.8659735 1.49984,0.391022 6.13124,-5.274343 7.43548,-4.913234 1.1275,0.312176 0.0409,6.260095 2.39099,7.153477 3.16623,1.203641 5.57981,-4.093762 6.97422,-3.074986 1.06325,0.776819 0.23576,7.290766 3.084,5.518477 7.51617,-4.676857 1.07698,2.692345 12.30844,0.737776 1.58888,-0.276507 1.06056,2.329092 2.295,3.212995 8.30408,5.946005 20.4365,3.543248 29.84807,7.571234 12.06901,5.165323 30.2037,18.168554 31.29997,20.661057 1.31989,4.258035 -9.71269,5.868088 -17.92563,5.580645 13.39969,8.834155 18.72341,9.270319 29.22295,5.50799 13.21198,-4.734286 51.26481,-27.057314 62.42388,-24.173955 3.14976,0.813857 -20.01327,34.175638 -20.80796,39.473926 -1.32792,8.853381 18.93656,37.42943 18.66597,38.55593 -10.12981,3.87176 -42.60876,-19.604501 -52.9379,-20.807963 -19.62763,-2.931335 -23.40882,0.185392 -41.00393,7.649983 0,0 12.80085,-2.69429 15.94909,-1.51143 7.54058,9.14566 -12.12699,33.81862 -16.56109,33.33537 -7.21026,-0.78581 -22.94995,-15.91197 -22.94995,-15.91197 -22.28314,9.52796 -34.41129,10.46558 -57.5279,11.01598 6.0001,2.80585 8.0095,7.40362 5.20199,12.85198 -2.17707,4.2249 -7.57266,21.05589 -9.17998,22.64396 -6.03559,-1.10191 -20.541924,-20.39162 -24.785952,-38.24993 0,0 -46.950907,-7.79858 -71.82024,-16.99384 C 3.7010649,108.01991 0.65688791,99.25138 3.4619883,94.918128 Z"
         id="path4525" />
      <g
         aria-label="B"
         transform="matrix(-0.57390609,-0.8766692,1.1648617,-0.46598352,-5.6692391,-8.5928101)"
         style="font-style:normal;font-variant:normal;font-weight:normal;font-stretch:normal;font-size:67.44203949px;line-height:1.25;font-family:'Hack Nerd Font';-inkscape-font-specification:'Hack Nerd Font';letter-spacing:0px;word-spacing:0px;fill:#000000;fill-opacity:1;stroke:none;stroke-width:1.68605101"
         id="text4549">
        <path
           d="m -118.20478,-34.885157 11.87743,3.421419 c 12.332245,2.84542 25.045709,15.262904 22.729494,23.2927527 -1.388174,3.5399257 -3.430156,8.00765161 -7.311662,8.60663561 3.249161,0.4829835 6.893003,3.54891479 8.715168,5.81015509 4.22311,6.3493056 5.005565,19.8392686 -0.84681,23.6136696 -4.186014,2.699707 -53.66326,-17.626201 -53.66326,-17.626201 z m 23.406452,29.5037064 c 6.378518,-4.3000038 1.086662,-11.6652574 -3.50062,-15.7461784 -5.015922,-2.395616 -15.512772,-5.33382 -15.512772,-5.33382 l -5.4426,13.992537 c 0,0 20.504088,8.6561167 24.455992,7.0874614 z m 6.0627,28.1276806 c 2.988867,-3.382525 2.360959,-11.56163 -1.643759,-15.2034133 -7.89294,-5.9566408 -31.427763,-12.9539793 -31.427763,-12.9539793 l -5.92822,15.0600583 c 0,0 35.537348,14.2860803 38.999742,13.0973343 z"
           style="stroke-width:1.68605101"
           id="path4567" />
      </g>
      <g
         aria-label="R"
         transform="matrix(0.87053481,-0.10495377,0.13650815,1.1322614,-4.5126261,18.643112)"
         style="font-style:normal;font-variant:normal;font-weight:normal;font-stretch:normal;font-size:118.87496948px;line-height:1.25;font-family:'Hack Nerd Font';-inkscape-font-specification:'Hack Nerd Font';letter-spacing:0px;word-spacing:0px;fill:#000000;fill-opacity:1;stroke:none;stroke-width:2.97187424"
         id="text4553">
        <path
           d="m 97.312396,20.057568 27.682434,-2.374789 c 9.49903,-0.814892 16.85223,2.147643 21.88274,6.44293 7.33392,8.631203 11.16533,21.968893 8.15812,31.221579 -0.77392,2.283081 -1.93481,4.333983 -3.48266,6.152708 -3.05701,3.637451 -9.52786,5.669792 -15.25491,6.482414 11.24703,1.042652 18.9718,29.12311 24.42031,40.09951 h -12.59564 c -5.36479,-9.587734 -6.10977,-18.907728 -12.25841,-27.954726 -4.11469,-5.860378 -6.2039,-6.496406 -9.40677,-7.137321 -5.26546,-1.094093 -10.6747,-0.505296 -16.33137,-0.505296 l -0.35992,45.646213 -13.16891,-0.12846 z m 43.579034,37.086979 c 5.35777,-6.72999 1.69024,-20.247353 -4.64418,-26.290278 -6.46821,-5.223695 -27.43565,-1.593018 -27.43565,-1.593018 l 0.42143,32.559264 c 8.25645,-0.04896 26.29386,0.04755 31.6584,-4.675968 z"
           style="stroke-width:2.97187424"
           id="path4570" />
      </g>
      <g
         aria-label="E"
         transform="matrix(0.87693803,-0.21764547,0.25125671,1.0931953,0,-0.42918546)"
         style="font-style:normal;font-variant:normal;font-weight:normal;font-stretch:normal;font-size:98.98495483px;line-height:1.25;font-family:'Hack Nerd Font';-inkscape-font-specification:'Hack Nerd Font';letter-spacing:0px;word-spacing:0px;fill:#000000;fill-opacity:1;stroke:none;stroke-width:2.47462368"
         id="text4557">
        <path
           d="m 142.15223,57.52242 44.08937,11.411088 v 8.216524 l -35.39403,-8.902004 -0.48138,24.260971 30.39034,5.472814 v 8.216527 l -30.39034,-5.47281 -0.95531,27.04635 32.87115,3.86221 v 8.21652 l -43.55088,-4.31685 z"
           style="stroke-width:2.47462368"
           id="path4573" />
      </g>
      <g
         aria-label="A"
         transform="matrix(0.00283021,0.90224383,-0.99065085,0.0011458,-2.1266239,16.093658)"
         style="font-style:normal;font-variant:normal;font-weight:normal;font-stretch:normal;font-size:70.62223053px;line-height:1.25;font-family:'Hack Nerd Font';-inkscape-font-specification:'Hack Nerd Font';letter-spacing:0px;word-spacing:0px;fill:#000000;fill-opacity:1;stroke:none;stroke-width:1.76555586"
         id="text4561">
        <path
           d="m 68.021873,-242.35281 h 8.44846 l 15.758965,51.48388 h -7.207054 l -3.793186,-13.41408 H 63.194181 l -3.724219,13.41408 h -7.207054 z m 11.551976,32.48347 -7.344988,-26.3454 -7.344987,26.3454 z"
           style="stroke-width:1.76555586"
           id="path4576" />
      </g>
      <g
         aria-label="M"
         transform="matrix(-0.01419725,-1.1004373,0.73133302,-0.02136262,19.653575,9.1331862)"
         style="font-style:normal;font-variant:normal;font-weight:normal;font-stretch:normal;font-size:82.52539825px;line-height:1.25;font-family:'Hack Nerd Font';-inkscape-font-specification:'Hack Nerd Font';letter-spacing:0px;word-spacing:0px;fill:#000000;fill-opacity:1;stroke:none;stroke-width:2.06313491"
         id="text4565">
        <path
           d="m -82.165823,299.40718 7.344387,-0.0686 5.17644,29.37121 6.557067,-29.74066 7.868602,0.13278 13.259006,58.28643 -9.026898,-6.09595 -8.069667,-40.90595 -6.337249,26.65348 -9.500819,-0.0648 -4.178418,-25.41183 -10.915774,36.34742 -8.727896,4.57864 z"
           style="stroke-width:2.06313491"
           id="path4579" />
      </g>
    </g>
  </g>
</svg>
