<svg xmlns="http://www.w3.org/2000/svg" height="600" width="600"><path d="M18.805 4.27C63.707-1.456 102.504.497 145.153 2.803c44.518 2.406 125.95 45.003 125.95 45.003 19.396 3.149 48.908-29.074 53.438-28.603 3.14 1.123-17.956 28.745-12.951 30.452 3.135 1.069 40.976-13.03 44.506-8.755 2.002 2.425-21.55 17.847-15.352 24.498 1.74 1.866 19.818-3.982 21.132-.386.88 2.408-10.04 17.105-6.58 20.315 2.832 2.626 22.346.68 23.394 3.405 1.085 2.818-14.418 10.552-10.661 18.404 1.702 3.558 20.324 3.26 21.764 6.39 1.244 2.704-12.106 10.36-9.983 16.396 2.859 8.133 17.123 4.127 17.432 8.511.236 3.343-13.79 12.432-5.666 15.06 21.437 6.934-3.466 6.515 18.779 25.145 3.147 2.635-2.787 5.887-2.479 9.739 2.075 25.911 26.672 45.557 34.295 70.472 9.776 31.95 14.273 88.567 11.227 94.792-6.112 9.56-27.361-9.25-40.29-25.691 4.828 40.563 12.723 51.63 37.28 65.868 30.904 17.916 136.801 55.25 149.52 81.683 3.59 7.461-99.32 17.209-110.927 24.364-19.396 11.957-41.683 98.29-44.317 99.613-24.164-13.339-31.853-115.046-46.476-137.107-26.533-42.98-38.802-45.214-82.212-67.169 0 0 26.26 20.467 29.13 28.531-5.4 29.682-85.674 31.957-92.016 22.541-10.313-15.31-6.749-70.756-6.749-70.756-55.12-27.682-76.86-49.725-115.893-93.771 4.397 16.275-1.243 27.733-16.448 31.221-11.79 2.705-53.378 19.854-59.106 19.336-7.77-13.546 5.917-73.43 33.672-111.01 0 0-61.94-104.102-84.9-167.56C-6.28 26.25 5.771 5.93 18.804 4.27z" fill="#ff79c6"/><path d="M16.647 66.293l18.698-25.222c17.42-27.25 62.116-41.117 82.988-23.154 8.92 8.857 19.96 20.776 18.69 31.594 3.837-7.58 15.258-12.293 23.02-13.559 21.119-1.27 59.744 16.963 65.924 37.58 4.42 14.747-90.59 110.708-90.59 110.708zM117.66 50.725c-7.26-22.75-32.057-20.273-47.058-14.67C60.026 45.281 43.742 67.7 43.742 67.7l35.298 34.895s40.03-39.418 38.62-51.87zm83.914 26.692c-7.258-12.712-30.793-23.374-44.112-18.602-22.808 11.238-60.472 60.89-60.472 60.89l37.937 37.737s67.36-69.394 66.647-80.025z" aria-label="B" font-weight="400" font-size="67.442" font-family="Hack Nerd Font" letter-spacing="0" word-spacing="0" stroke-width="1.686"/><path d="M273.338 54.074l49.921 37.041c17.13 12.71 23.284 30.185 23.009 46.96-5.087 29.49-25.202 63.657-48.412 78.745-5.78 3.675-11.731 6.268-17.857 7.78-12.187 3.08-26.777-2.44-37.74-9.42 16.312 19.315-26.596 90.727-39.4 122.334l-20.578-19.15c10.195-28.53 27.408-49.466 35.253-78.037 4.867-18.709 2.711-23.237-1.254-29.468-6.438-10.33-16.44-17.303-25.68-25.903L99.746 281.4l-21.26-20.295zm-2.144 145.06c22.062-6.154 42.8-40.452 44.402-62.923-.238-20.934-41.672-45.098-41.672-45.098l-63.696 69.825c13.585 12.449 42.862 40.077 60.966 38.197z" aria-label="R" font-weight="400" font-size="118.875" font-family="Hack Nerd Font" letter-spacing="0" word-spacing="0" stroke-width="2.972"/><path d="M364.857 163.915l62.605 85.483-14.076 18.765-50.7-68.033-42.459 54.76 47.252 53.457-14.075 18.765-47.252-53.458-48.112 60.482 54.633 53.123-14.075 18.765-73.755-68.555z" aria-label="E" font-weight="400" font-size="98.985" font-family="Hack Nerd Font" letter-spacing="0" word-spacing="0" stroke-width="2.475"/><path d="M438.694 431.504l-14.782 12.564-111.447-75.64 12.61-10.718 28.49 20.173 31.557-26.821-15.336-31.353 12.61-10.718zm-73.131-45.332l55.77 39.776-30.067-61.623z" aria-label="A" font-weight="400" font-size="70.622" font-family="Hack Nerd Font" letter-spacing="0" word-spacing="0" stroke-width="1.766"/><path d="M410.33 460.902l15.458-13.57 47.451 31.239-23.076-53.28 16.818-14.253 100.486 56.514-26.68 8.108-67.906-41.93 19.705 48.595-20.188 17.342-40.42-27.58 22.062 70.442-12.783 22.364z" aria-label="M" font-weight="400" font-size="82.525" font-family="Hack Nerd Font" letter-spacing="0" word-spacing="0" stroke-width="2.063"/></svg>